PathFileType	4	(X/Y/Z)	/Users/niels/Desktop/University/Third Semester/Perception and Action/Exam/Gymnastics Motion Tracking/Code for Gym Tracking/Analyzed Data/Webcam_Backflip/id2007_1_baseline_Sports2D/id2007_1_baseline_Sports2D_px_person00.trc
DataRate	CameraRate	NumFrames	NumMarkers	Units	OrigDataRate	OrigDataStartFrame	OrigNumFrames
29.776119402985074	29.776119402985074	15	22	m	29.776119402985074	0	134
Frame#	Time	Hip			RHip			RKnee			RAnkle			RBigToe			RSmallToe			RHeel			LHip			LKnee			LAnkle			LBigToe			LSmallToe			LHeel			Neck			Head			Nose			RShoulder			RElbow			RWrist			LShoulder			LElbow			LWrist		
		X1	Y1	Z1	X2	Y2	Z2	X3	Y3	Z3	X4	Y4	Z4	X5	Y5	Z5	X6	Y6	Z6	X7	Y7	Z7	X8	Y8	Z8	X9	Y9	Z9	X10	Y10	Z10	X11	Y11	Z11	X12	Y12	Z12	X13	Y13	Z13	X14	Y14	Z14	X15	Y15	Z15	X16	Y16	Z16	X17	Y17	Z17	X18	Y18	Z18	X19	Y19	Z19	X20	Y20	Z20	X21	Y21	Z21	X22	Y22	Z22
0	0.0	1.0439051808651236	-0.7265296856349246	0.0	1.0646867154525947	-0.7317372368078985	0.0	1.1660313171498375	-1.0645291898137588	0.0	1.0729083252678548	-1.0861252441537887	0.0			0.0	1.625089599609375	-0.343052490234375	0.0			0.0	1.0283262527827577	-0.7291435196426095	0.0	1.0412930955723858	-1.0593137615672157	0.0	0.9087116852439577	-1.0623582342743436	0.0			0.0			0.0			0.0	1.1582883056621303	-0.2558591670555424	0.0	1.3091272218629744	-0.08947083494031971	0.0	1.2727103597324039	-0.21946505986316808	0.0	1.1323078781150493	-0.27144734224066674	0.0	1.2050286676854012	-0.50542192351876	0.0	1.3843495213213683	-0.6588470553621376	0.0	1.1010765197877774	-0.27923103462904136	0.0	1.1399734118983311	-0.5106322663145074	0.0	1.1000531132303295	-0.6309642734000125	0.0
1	0.033583959899749376	1.0345603358021862	-0.7235998127227201	0.0	1.0456756461921883	-0.7276864995215496	0.0	1.1460912846812434	-1.061970337359049	0.0	1.0729083252248752	-1.086125244565351	0.0			0.0	1.625089599609375	-0.343052490234375	0.0			0.0	1.0379898426326617	-0.7282498363212256	0.0	1.033084262647012	-1.0552087910084145	0.0	0.9130010492529442	-1.0628791319365767	0.0			0.0			0.0			0.0	1.1430761556841003	-0.26016798982980677	0.0	1.290678337887711	-0.09448672773828805	0.0	1.255149077999955	-0.22039672823230133	0.0	1.10660354223135	-0.2758468944353736	0.0	1.1701994007416148	-0.5102079999736876	0.0	1.3635807109633755	-0.6612749334883943	0.0	1.0976286805748399	-0.29234671248045047	0.0	1.1357017119924648	-0.5254372909899411	0.0	1.1188927884088493	-0.67073986367432	0.0
2	0.06716791979949875	1.0251431387481755	-0.7212287367213035	0.0	1.027528563190712	-0.724147707796617	0.0	1.1274114120196959	-1.0597434896585551	0.0	1.0729083251014346	-1.0861252452847339	0.0			0.0	1.625089599609375	-0.343052490234375	0.0			0.0	1.0442266122268928	-0.7276768988175576	0.0	1.0248671099230782	-1.0515827459972427	0.0	0.9173122516605747	-1.063402681817674	0.0			0.0			0.0			0.0	1.1281963891182893	-0.2639710405921334	0.0	1.272675767369454	-0.09874342181013149	0.0	1.2380882941937779	-0.2207433770283512	0.0	1.082189197170569	-0.2799107387623434	0.0	1.1376300206580816	-0.5154486394737043	0.0	1.3426638970304423	-0.6650761626643645	0.0	1.0944782873568195	-0.30447363454446946	0.0	1.1295690584054476	-0.5401347617652571	0.0	1.1367205585571676	-0.7070802105847217	0.0
3	0.10075187969924812	1.015919433511524	-0.7197003549563418	0.0	1.0110478391308644	-0.7214143025012768	0.0	1.1107381455597887	-1.057990206717314	0.0	1.0729083248637648	-1.0861252462795896	0.0			0.0	1.625089599609375	-0.343052490234375	0.0			0.0	1.0456545137123443	-0.7276645544550632	0.0	1.0165329861326036	-1.0488194448607242	0.0	0.921647035215113	-1.0639290955241198	0.0			0.0			0.0			0.0	1.1140972798975237	-0.2669201631033775	0.0	1.2552264486731688	-0.10164755371627954	0.0	1.2217597299488079	-0.22007975836211985	0.0	1.0598867477407223	-0.283357359819156	0.0	1.108689869129298	-0.5212004619442179	0.0	1.3211003485415926	-0.6711603148577047	0.0	1.0923728857102148	-0.31521563131514163	0.0	1.1215979014820736	-0.5539452544087077	0.0	1.152470308994562	-0.7364607200973833	0.0
4	0.1343358395989975	1.0073822386200333	-0.7188961978762362	0.0	0.99679779252032	-0.7194340856003957	0.0	1.0962760139124317	-1.05667833209539	0.0	1.0729083245047266	-1.0861252472914995	0.0			0.0	1.625089599609375	-0.343052490234375	0.0			0.0	1.0430520043659999	-0.7281323613803864	0.0	1.0077619008512766	-1.0470569617434915	0.0	0.9259648624627832	-1.0644534500426364	0.0			0.0			0.0			0.0	1.1012802683842402	-0.2688951656439572	0.0	1.2381897250048461	-0.10296567330267875	0.0	1.2062021283105588	-0.2183153815168103	0.0	1.04001412001307	-0.28605537216563637	0.0	1.0837130723130193	-0.5272254047345634	0.0	1.2982452251673926	-0.6797451714222366	0.0	1.0920907715863775	-0.32457960583586026	0.0	1.1133290374498905	-0.5651059890090415	0.0	1.1648981346204765	-0.7558253820314048	0.0
5	0.16791979949874689	0.9998147456907089	-0.7184876264644746	0.0	0.9849789583465801	-0.7179804695748104	0.0	1.0837684826589862	-1.0556901073348455	0.0	1.0729083240863573	-1.0861252476833039	0.0			0.0	1.625089599609375	-0.343052490234375	0.0			0.0	1.0380235497496872	-0.7286542812016154	0.0	0.9983211592376641	-1.046104262363814	0.0	0.9301603043751576	-1.0649629417428266	0.0			0.0			0.0			0.0	1.0900695585189284	-0.2699476731428984	0.0	1.2215112043822525	-0.10285076589377862	0.0	1.1914872318149847	-0.21570262558475053	0.0	1.0226816959259353	-0.28823905349199813	0.0	1.0624448634761132	-0.5333248915479689	0.0	1.2736656672288675	-0.6906505950120818	0.0	1.093478516307746	-0.33253050527374794	0.0	1.1062503721007522	-0.5718589141365524	0.0	1.1729856762436481	-0.7639365774845349	0.0
6	0.20150375939849624	0.9931046426141547	-0.7182599167471656	0.0	0.9754643827943296	-0.7169475120867135	0.0	1.072633211611385	-1.0548976217043762	0.0	1.07290832379772	-1.086125246316824	0.0			0.0	1.625089599609375	-0.343052490234375	0.0			0.0	1.031866426471813	-0.7288193750246844	0.0	0.9886195580317387	-1.0455770143640875	0.0	0.9340491417373659	-1.0654351984762158	0.0			0.0			0.0			0.0	1.080489643388796	-0.270261709466499	0.0	1.2054849688154148	-0.10168407778113378	0.0	1.17783750247446	-0.21268803105244263	0.0	1.0080421823980805	-0.2905184006062449	0.0	1.0445837316274114	-0.5394539535489673	0.0	1.2475871269192556	-0.7035332169531033	0.0	1.0952436861082147	-0.3389187194434212	0.0	1.1010805410043	-0.5740861875023419	0.0	1.176689592041779	-0.7625683112047424	0.0
7	0.23508771929824562	0.9869494271990705	-0.7183591920393909	0.0	0.9679008468101767	-0.7165444416297027	0.0	1.0620585058449294	-1.0542443585121921	0.0	1.0729083240120179	-1.0861252415841292	0.0			0.0	1.625089599609375	-0.343052490234375	0.0			0.0	1.0253008398095593	-0.7286747662116557	0.0	0.9799151804807997	-1.0452471655292135	0.0	0.9373829988121553	-1.0658400567163744	0.0			0.0			0.0			0.0	1.0723933210301901	-0.2701595553451634	0.0	1.1907316204089196	-0.09987521264892472	0.0	1.165566495848884	-0.20972961778717703	0.0	0.9961892477826614	-0.29348490524513504	0.0	1.0298313098693386	-0.5455669189527685	0.0	1.2207834791972778	-0.7178414760629495	0.0	1.095869335106005	-0.3437657920515722	0.0	1.0982151528666833	-0.5737155793710708	0.0	1.1773221001293153	-0.7559810496362832	0.0
8	0.268671679197995	0.9811637910248702	-0.7192988197407392	0.0	0.9618854913541083	-0.7172680990150317	0.0	1.051042875581986	-1.0537774958293569	0.0	1.0729083253045895	-1.0861252317903243	0.0			0.0	1.625089599609375	-0.343052490234375	0.0			0.0	1.0188053363194542	-0.7288459549983406	0.0	0.9738212982245346	-1.0452658709230986	0.0	0.9399237085270302	-1.066148592674243	0.0			0.0			0.0			0.0	1.0656536961823346	-0.2699754705204022	0.0	1.1779931815099267	-0.09776665840803223	0.0	1.154977125397475	-0.20715270394572835	0.0	0.9869701196568379	-0.29725394044602016	0.0	1.0175320177805145	-0.551364931929318	0.0	1.1938280575920956	-0.7328277758358406	0.0	1.0945619847159318	-0.3474280144022644	0.0	1.097919366945754	-0.5733555546040199	0.0	1.1770118169520631	-0.7486028522929481	0.0
9	0.3022556390977444	0.9758106395699196	-0.7216566658119787	0.0	0.9571045795531103	-0.7196617462110427	0.0	1.038604085827255	-1.0536399094043616	0.0	1.0729083283643797	-1.0861252161376884	0.0			0.0	1.625089599609375	-0.343052490234375	0.0			0.0	1.0129703335780322	-0.7302414232373455	0.0	0.9714772687613558	-1.0460010872415237	0.0	0.9415685114328418	-1.0663483269963274	0.0			0.0			0.0			0.0	1.060202063460654	-0.26985131447618294	0.0	1.167910666482973	-0.09565512803238803	0.0	1.1463008511197712	-0.20509355976100924	0.0	0.9800731559596185	-0.3013704806963354	0.0	1.0065873975745265	-0.5562629209340155	0.0	1.1667202779409775	-0.7477185371241533	0.0	1.091432113779097	-0.3503023867381009	0.0	1.0996966901068488	-0.5746006130710911	0.0	1.1773399486292373	-0.7430431851886425	0.0
10	0.33583959899749377	0.9711426903154349	-0.7257104852772582	0.0	0.9532885548990301	-0.7240197534070133	0.0	1.0243499414938189	-1.0540806412203296	0.0	1.0729083337052239	-1.0861251965232956	0.0			0.0	1.625089599609375	-0.343052490234375	0.0			0.0	1.0084679179567726	-0.7335684235976115	0.0	0.9727935763290171	-1.047684775569121	0.0	0.9424186182875692	-1.066451552056992	0.0			0.0			0.0			0.0	1.055965571675902	-0.26972698287786995	0.0	1.1608678458196977	-0.09384911963895126	0.0	1.139706573656486	-0.203559683760222	0.0	0.9752397120349018	-0.3050988350442702	0.0	0.9959164884709117	-0.5596061008493903	0.0	1.1392191110032097	-0.7616395993854005	0.0	1.0871455269504495	-0.3524141505366251	0.0	1.1017593358111546	-0.5773815064436321	0.0	1.1779316897013334	-0.740082509113623	0.0
11	0.36942355889724315	0.967370603412337	-0.7312770634213007	0.0	0.9500933101743957	-0.7301900989217173	0.0	1.0088801916243524	-1.0553400156039097	0.0	1.072908341080899	-1.0861251801322915	0.0			0.0	1.625089599609375	-0.343052490234375	0.0			0.0	1.0056180663915348	-0.7389636856370948	0.0	0.9761464778830159	-1.0502015809815057	0.0	0.9427109240377956	-1.0664870408862699	0.0			0.0			0.0			0.0	1.0528680671987931	-0.2695372610030523	0.0	1.1569621023243792	-0.09266816536933464	0.0	1.1353516758556135	-0.20255163136716364	0.0	0.9723225111669299	-0.3078768759787535	0.0	0.9849917682969103	-0.5610534213917765	0.0	1.1112211529698237	-0.773658799495508	0.0	1.0824544099842666	-0.35346213771033447	0.0	1.1015650362518234	-0.5805746696110085	0.0	1.176597015475366	-0.7396382520099697	0.0
12	0.4030075187969925	0.9643277610947755	-0.7377102754153663	0.0	0.9470301466155637	-0.7375443878460934	0.0	0.9934368877586128	-1.057361584118254	0.0	1.0729083485649027	-1.0861251822635685	0.0			0.0	1.625089599609375	-0.343052490234375	0.0			0.0	1.003910324976262	-0.7458939939033497	0.0	0.9789767920085026	-1.0530965405454489	0.0	0.9426933341709494	-1.0664849084742343	0.0			0.0			0.0			0.0	1.0509229602704675	-0.26933368138113317	0.0	1.156062155984363	-0.0923258750272306	0.0	1.133378177041118	-0.20212576444673958	0.0	0.9712414056392411	-0.3096100758273197	0.0	0.9739777925669135	-0.5609280320149176	0.0	1.082927683320802	-0.7832296564674143	0.0	1.0779195233727386	-0.35318725979059185	0.0	1.0971105497619407	-0.5830391430726143	0.0	1.1710710873801538	-0.7412809306877188	0.0
13	0.43659147869674186	0.9613954071328381	-0.7440131168559121	0.0	0.9434818323751827	-0.7451244108676375	0.0	0.9791263412805503	-1.0596809004608339	0.0	1.0729083514195312	-1.0861252278714644	0.0			0.0	1.625089599609375	-0.343052490234375	0.0			0.0	1.0021265554046226	-0.753320082931965	0.0	0.9790160359297531	-1.0557320644805064	0.0	0.9425513516190278	-1.0664676972089466	0.0			0.0			0.0			0.0	1.0502854960042571	-0.2691990852601661	0.0	1.157856372220176	-0.0927937849207924	0.0	1.133836363226736	-0.2023701413156935	0.0	0.9719526186428814	-0.310547082997334	0.0	0.9634380667896316	-0.5600454708956958	0.0	1.0548652414154005	-0.7902853940289735	0.0	1.0739492288501895	-0.35158569833623365	0.0	1.0878682682242384	-0.5840739632740076	0.0	1.16028726884824	-0.744448832684255	0.0
14	0.47017543859649125	0.9578477556894848	-0.7491282484422496	0.0	0.9388734269233299	-0.7518809391899703	0.0	0.9664498560832806	-1.061670506371607	0.0	1.0729083411937494	-1.0861253489893548	0.0			0.0	1.625089599609375	-0.343052490234375	0.0			0.0	0.9990891332243329	-0.7600201199869	0.0	0.9752904042762678	-1.057506717466749	0.0	0.9423948209432911	-1.0664487651224817	0.0			0.0			0.0			0.0	1.0511651574818357	-0.2691672036750954	0.0	1.1618868313316846	-0.09383774707519603	0.0	1.1366112310221428	-0.20334009472272113	0.0	0.9743992691622014	-0.310970883610502	0.0	0.953926540804053	-0.5591677501432646	0.0	1.0278217711262727	-0.7949947819727371	0.0	1.0709266619095246	-0.348963282788372	0.0	1.074845972740543	-0.5833865204457479	0.0	1.1444404423422243	-0.7487183877394705	0.0
